<?xml version="1.0" encoding="UTF-8" standalone="no"?>
<!-- Created with Inkscape (http://www.inkscape.org/) -->

<svg
   width="64"
   height="64"
   viewBox="0 0 64 64"
   version="1.1"
   id="svg5"
   sodipodi:docname="dinkur-small-64.svg"
   inkscape:version="1.1.2 (0a00cf5339, 2022-02-04, custom)"
   inkscape:export-filename="C:\Users\kalle\Documents\Inkscape\dinkur-small-64.png"
   inkscape:export-xdpi="96"
   inkscape:export-ydpi="96"
   xmlns:inkscape="http://www.inkscape.org/namespaces/inkscape"
   xmlns:sodipodi="http://sodipodi.sourceforge.net/DTD/sodipodi-0.dtd"
   xmlns:xlink="http://www.w3.org/1999/xlink"
   xmlns="http://www.w3.org/2000/svg"
   xmlns:svg="http://www.w3.org/2000/svg"
   xmlns:rdf="http://www.w3.org/1999/02/22-rdf-syntax-ns#"
   xmlns:cc="http://creativecommons.org/ns#"
   xmlns:dc="http://purl.org/dc/elements/1.1/">
  <title
     id="title15201">Dinkur</title>
  <sodipodi:namedview
     id="namedview7"
     pagecolor="#595959"
     bordercolor="#eeeeee"
     borderopacity="1"
     inkscape:pageshadow="0"
     inkscape:pageopacity="0"
     inkscape:pagecheckerboard="false"
     inkscape:document-units="px"
     showgrid="false"
     showguides="true"
     inkscape:guide-bbox="true"
     inkscape:object-paths="true"
     inkscape:snap-intersection-paths="false"
     inkscape:snap-smooth-nodes="true"
     inkscape:snap-midpoints="false"
     inkscape:object-nodes="true"
     inkscape:zoom="0.25"
     inkscape:cx="2"
     inkscape:cy="120"
     inkscape:window-width="1680"
     inkscape:window-height="987"
     inkscape:window-x="-8"
     inkscape:window-y="-8"
     inkscape:window-maximized="1"
     inkscape:current-layer="layer1" />
  <defs
     id="defs2">
    <linearGradient
       inkscape:collect="always"
       id="linearGradient20165">
      <stop
         style="stop-color:#000000;stop-opacity:1;"
         offset="0"
         id="stop20161" />
      <stop
         style="stop-color:#000000;stop-opacity:0;"
         offset="1"
         id="stop20163" />
    </linearGradient>
    <inkscape:path-effect
       effect="simplify"
       id="path-effect20122"
       is_visible="true"
       lpeversion="1"
       steps="3"
       threshold="0.0025"
       smooth_angles="20"
       helper_size="5"
       simplify_individual_paths="false"
       simplify_just_coalesce="false" />
    <inkscape:path-effect
       effect="simplify"
       id="path-effect20120"
       is_visible="true"
       lpeversion="1"
       steps="5"
       threshold="0.0025"
       smooth_angles="20"
       helper_size="5"
       simplify_individual_paths="false"
       simplify_just_coalesce="false" />
    <inkscape:path-effect
       effect="fillet_chamfer"
       id="path-effect20118"
       is_visible="true"
       lpeversion="1"
       satellites_param="F,0,0,1,0,0,0,1 @ F,0,0,1,0,0,0,1 @ F,0,0,1,0,0,0,1 @ F,0,0,1,0,0,0,1 @ F,0,0,1,0,0,0,1 @ F,0,0,1,0,0,0,1 @ F,0,0,1,0,0,0,1 @ F,0,0,1,0,0,0,1 @ F,0,0,1,0,0,0,1 @ F,0,0,1,0,0,0,1 @ F,0,0,1,0,0,0,1 @ F,0,0,1,0,0,0,1 @ F,0,0,1,0,0,0,1 @ F,0,0,1,0,0,0,1 @ F,0,0,1,0,0,0,1 @ F,0,0,1,0,0,0,1 @ F,0,0,1,0,0,0,1 @ F,0,0,1,0,0,0,1 @ F,0,0,1,0,0,0,1 @ F,0,0,1,0,0,0,1 @ F,0,0,1,0,0,0,1 @ F,0,0,1,0,0,0,1 @ F,0,0,1,0,0,0,1 @ F,0,0,1,0,0,0,1 @ F,0,0,1,0,0,0,1 @ F,0,0,1,0,0,0,1 @ F,0,0,1,0,0,0,1 @ F,0,0,1,0,0,0,1 @ F,0,0,1,0,0,0,1 @ F,0,0,1,0,0,0,1 @ F,0,0,1,0,0,0,1 @ F,0,0,1,0,0,0,1 @ F,0,0,1,0,0,0,1 @ F,0,0,1,0,0,0,1 @ F,0,0,1,0,0,0,1 @ F,0,0,1,0,0,0,1 @ F,0,0,1,0,0,0,1 @ F,0,0,1,0,0,0,1 @ F,0,0,1,0,0,0,1 @ F,0,0,1,0,0,0,1 @ F,0,0,1,0,0,0,1 @ F,0,0,1,0,0,0,1 @ F,0,0,1,0,0,0,1 @ F,0,0,1,0,0,0,1 @ F,0,0,1,0,0,0,1 @ F,0,0,1,0,0,0,1 @ F,0,0,1,0,0,0,1 @ F,0,0,1,0,0,0,1 @ F,0,0,1,0,0,0,1 @ F,0,0,1,0,0,0,1 @ F,0,0,1,0,0,0,1 @ F,0,0,1,0,0,0,1 @ F,0,0,1,0,0,0,1 @ F,0,0,1,0,0,0,1 @ F,0,0,1,0,0,0,1 @ F,0,0,1,0,0,0,1 @ F,0,0,1,0,0,0,1 @ F,0,0,1,0,0,0,1 @ F,0,0,1,0,0,0,1 @ F,0,0,1,0,0,0,1 @ F,0,0,1,0,0,0,1 @ F,0,0,1,0,0,0,1 @ F,0,0,1,0,0,0,1 @ F,0,0,1,0,0,0,1 @ F,0,0,1,0,0,0,1 @ F,0,0,1,0,0,0,1 @ F,0,0,1,0,0,0,1 @ F,0,0,1,0,0,0,1 @ F,0,0,1,0,0,0,1 @ F,0,0,1,0,0,0,1 @ F,0,0,1,0,0,0,1 @ F,0,0,1,0,0,0,1 @ F,0,0,1,0,0,0,1 @ F,0,0,1,0,0,0,1 @ F,0,0,1,0,0,0,1 @ F,0,0,1,0,0,0,1 @ F,0,0,1,0,0,0,1 @ F,0,0,1,0,0,0,1 @ F,0,0,1,0,0,0,1 @ F,0,0,1,0,0,0,1 @ F,0,0,1,0,0,0,1 @ F,0,0,1,0,0,0,1 @ F,0,0,1,0,0,0,1 @ F,0,0,1,0,0,0,1 @ F,0,0,1,0,0,0,1 @ F,0,0,1,0,0,0,1 @ F,0,0,1,0,0,0,1"
       unit="px"
       method="auto"
       mode="F"
       radius="0"
       chamfer_steps="1"
       flexible="false"
       use_knot_distance="true"
       apply_no_radius="true"
       apply_with_radius="true"
       only_selected="false"
       hide_knots="false" />
    <linearGradient
       inkscape:collect="always"
       id="clock_gradient">
      <stop
         style="stop-color:#ffd000;stop-opacity:1"
         offset="0"
         id="stop6614" />
      <stop
         style="stop-color:#b30000;stop-opacity:1"
         offset="1"
         id="stop6616" />
    </linearGradient>
    <radialGradient
       inkscape:collect="always"
       xlink:href="#clock_gradient"
       id="radialGradient19181"
       cx="28.931673"
       cy="33.000004"
       fx="28.931673"
       fy="33.000004"
       r="22.009514"
       gradientTransform="matrix(2.3346498,0,0,1.5565012,-38.613652,-18.364546)"
       gradientUnits="userSpaceOnUse" />
    <radialGradient
       inkscape:collect="always"
       xlink:href="#linearGradient20165"
       id="radialGradient20997"
       cx="28.931673"
       cy="25.030949"
       fx="28.931673"
       fy="25.030949"
       r="8.8536901"
       gradientTransform="matrix(0.46637899,0,2.3285782e-7,0.41752578,15.438544,4.5882597)"
       gradientUnits="userSpaceOnUse" />
    <radialGradient
       inkscape:collect="always"
       xlink:href="#linearGradient20165"
       id="radialGradient22057"
       gradientUnits="userSpaceOnUse"
       gradientTransform="matrix(-0.24175646,0,-7.5310657e-7,-0.25634158,35.926159,79.431202)"
       cx="28.93162"
       cy="111.0648"
       fx="28.93162"
       fy="111.0648"
       r="8.8536901" />
  </defs>
  <g
     inkscape:label="Layer 1"
     inkscape:groupmode="layer"
     id="layer1">
    <path
       id="path19987"
       style="color:#000000;fill:#000000;stroke-linecap:round;stroke-linejoin:round;paint-order:stroke fill markers;fill-opacity:1;stroke:#000000;stroke-opacity:1;stroke-width:4;stroke-miterlimit:4;stroke-dasharray:none"
       d="M 30.876953 5.3671875 C 24.89883 5.3671875 19.357066 7.2885256 14.832031 10.527344 C 14.819511 10.535244 14.805469 10.540898 14.792969 10.548828 L 14.794922 10.550781 C 14.774562 10.565401 14.750779 10.575174 14.730469 10.589844 A 1.250125 1.250125 0 0 0 15.734375 12.576172 C 15.624304 13.000108 15.665215 13.464731 15.896484 13.865234 L 16.720703 15.289062 C 17.18789 16.098259 18.259005 16.386834 19.068359 15.919922 C 19.878018 15.452728 20.164707 14.379829 19.697266 13.570312 L 18.875 12.144531 C 18.744152 11.917923 18.488185 11.829991 18.275391 11.685547 C 21.130242 10.240385 24.219681 9.2196731 27.585938 9.0214844 C 27.404854 9.2932519 27.210939 9.5679408 27.210938 9.9121094 L 27.210938 12.230469 C 27.210938 12.461337 27.259554 12.683583 27.345703 12.886719 C 26.68246 13.380141 26.244141 14.164943 26.244141 15.039062 L 26.248047 14.923828 L 25.095703 32.226562 C 24.850219 33.473513 25.202292 34.82123 26.15625 35.775391 A 1.750175 1.750175 0 0 0 26.236328 35.849609 L 27.517578 36.980469 L 27.710938 51.099609 A 1.0001 1.0001 0 0 0 27.712891 51.101562 C 27.719835 51.545276 27.98547 51.944398 28.365234 52.152344 C 27.7013 52.39231 27.210938 53.03099 27.210938 53.767578 L 27.210938 56.087891 C 27.210939 56.432059 27.404854 56.706748 27.585938 56.978516 C 24.217529 56.780197 21.125796 55.759291 18.269531 54.3125 C 18.485202 54.171283 18.739698 54.088 18.875 53.853516 L 19.697266 52.429688 C 20.164724 51.620168 19.878031 50.547273 19.068359 50.080078 C 18.774567 49.910448 18.436174 49.831711 18.097656 49.853516 L 18.095703 49.853516 C 17.984037 49.860916 17.871789 49.879303 17.763672 49.908203 C 17.323814 50.026349 16.946226 50.316364 16.71875 50.710938 L 15.896484 52.134766 C 15.665222 52.535267 15.624303 52.999898 15.734375 53.423828 A 1.250125 1.250125 0 0 0 14.730469 55.410156 C 14.750779 55.424826 14.774572 55.434609 14.794922 55.449219 L 14.792969 55.451172 C 14.805469 55.459072 14.819521 55.464746 14.832031 55.472656 C 19.357065 58.711467 24.89883 60.632812 30.876953 60.632812 C 46.107942 60.632812 58.509766 48.230989 58.509766 33 C 58.509766 17.769011 46.107942 5.3671875 30.876953 5.3671875 z M 30.285156 9.046875 C 33.681993 9.2296587 36.864516 10.11563 39.744141 11.564453 C 39.454126 11.714347 39.150014 11.859736 38.984375 12.146484 L 37.5 14.71875 C 37.032405 15.528067 37.317564 16.600889 38.126953 17.068359 C 38.936472 17.535798 40.009374 17.249117 40.476562 16.439453 L 41.962891 13.865234 C 42.153877 13.534481 42.14281 13.159982 42.097656 12.800781 C 44.869197 14.603014 47.194732 16.994102 49.021484 19.748047 C 48.989334 19.746247 48.958021 19.736348 48.925781 19.736328 A 1.250125 1.250125 0 0 0 48.923828 19.736328 C 48.622097 19.736463 48.325682 19.815798 48.064453 19.966797 L 45.152344 21.648438 C 44.343151 22.115616 44.054591 23.186737 44.521484 23.996094 A 1.250125 1.250125 0 0 0 44.521484 23.998047 C 44.988672 24.80772 46.061571 25.094401 46.871094 24.626953 L 49.785156 22.945312 C 50.103053 22.761699 50.265567 22.440588 50.408203 22.123047 C 51.892741 25.036119 52.843573 28.259161 53.027344 31.705078 C 52.735834 31.478269 52.407294 31.28125 52.017578 31.28125 L 48.654297 31.28125 C 47.719321 31.281251 46.933015 32.065024 46.933594 33 C 46.933593 33.934589 47.719708 34.718748 48.654297 34.71875 L 52.017578 34.71875 C 52.407294 34.71875 52.735834 34.521731 53.027344 34.294922 C 52.843573 37.740839 51.892741 40.963881 50.408203 43.876953 C 50.265568 43.559414 50.103051 43.238301 49.785156 43.054688 L 46.871094 41.373047 C 46.609802 41.222278 46.313388 41.142513 46.011719 41.142578 A 1.250125 1.250125 0 0 0 46.009766 41.142578 C 45.859546 41.142652 45.711489 41.162222 45.566406 41.201172 C 45.126385 41.31892 44.749321 41.607524 44.521484 42.001953 C 44.054584 42.811312 44.343145 43.882432 45.152344 44.349609 L 48.064453 46.033203 C 48.378034 46.214202 48.732332 46.192115 49.074219 46.160156 C 47.239885 48.952002 44.89875 51.377769 42.097656 53.199219 C 42.142816 52.840018 42.153876 52.465519 41.962891 52.134766 L 40.474609 49.558594 C 40.325347 49.30009 40.043973 49.182529 39.791016 49.033203 A 1.250125 1.250125 0 0 0 39.621094 48.902344 C 39.546094 48.870154 39.511325 48.779187 39.431641 48.757812 C 39.286558 48.718852 39.13655 48.699299 38.986328 48.699219 C 38.68466 48.699154 38.388243 48.778919 38.126953 48.929688 C 37.317284 49.396876 37.030604 50.467823 37.498047 51.277344 L 38.984375 53.853516 C 39.155231 54.149611 39.459817 54.288585 39.75 54.433594 C 36.868974 55.884041 33.684139 56.770226 30.285156 56.953125 C 30.456964 56.686222 30.648436 56.422299 30.648438 56.087891 L 30.648438 53.767578 C 30.648436 53.032489 30.15991 52.395416 29.498047 52.154297 C 29.879102 51.946433 30.146204 51.545224 30.152344 51.099609 L 30.3125 39.443359 L 35.427734 43.955078 L 35.347656 43.880859 C 36.565927 45.099148 38.594229 45.099148 39.8125 43.880859 C 41.030788 42.662589 41.030788 40.634286 39.8125 39.416016 L 39.886719 39.496094 L 32.710938 31.357422 L 31.615234 14.923828 L 31.619141 15.039062 C 31.619141 14.163978 31.180102 13.378081 30.515625 12.884766 C 30.601178 12.682239 30.648437 12.46049 30.648438 12.230469 L 30.648438 9.9121094 C 30.648436 9.5777009 30.456964 9.3137786 30.285156 9.046875 z " />
    <path
       id="path18791"
       style="color:#000000;fill:url(#radialGradient19181);stroke-linecap:round;stroke-linejoin:round;paint-order:stroke fill markers;fill-opacity:1;stroke:none;stroke-opacity:1;stroke-width:0.01;stroke-miterlimit:4;stroke-dasharray:none"
       d="M 30.876953 5.3671875 C 24.89883 5.3671875 19.357066 7.2885258 14.832031 10.527344 C 14.819511 10.535244 14.805469 10.540898 14.792969 10.548828 L 14.794922 10.550781 C 14.774562 10.565401 14.750779 10.575174 14.730469 10.589844 A 1.250125 1.250125 0 0 0 15.734375 12.576172 C 15.624304 13.000108 15.665215 13.464731 15.896484 13.865234 L 16.720703 15.289062 C 17.18789 16.098258 18.259005 16.386834 19.068359 15.919922 C 19.878018 15.452728 20.164707 14.379828 19.697266 13.570312 L 18.875 12.144531 C 18.744152 11.917923 18.488185 11.829991 18.275391 11.685547 C 21.130242 10.240385 24.219681 9.2196731 27.585938 9.0214844 C 27.404854 9.2932519 27.210939 9.5679408 27.210938 9.9121094 L 27.210938 12.230469 C 27.210939 13.165057 27.995101 13.95117 28.929688 13.951172 C 29.864278 13.951172 30.648436 13.165058 30.648438 12.230469 L 30.648438 9.9121094 C 30.648436 9.5777009 30.456964 9.3137786 30.285156 9.046875 C 33.681993 9.2296587 36.864516 10.11563 39.744141 11.564453 C 39.454126 11.714347 39.150014 11.859736 38.984375 12.146484 L 37.5 14.71875 C 37.032405 15.528067 37.317564 16.600889 38.126953 17.068359 C 38.936472 17.535798 40.009374 17.249117 40.476562 16.439453 L 41.962891 13.865234 C 42.153877 13.534481 42.14281 13.159982 42.097656 12.800781 C 44.869197 14.603014 47.194732 16.994102 49.021484 19.748047 C 48.989334 19.746247 48.958021 19.736348 48.925781 19.736328 A 1.250125 1.250125 0 0 0 48.923828 19.736328 C 48.622097 19.736463 48.325682 19.815798 48.064453 19.966797 L 45.152344 21.648438 C 44.343151 22.115616 44.054591 23.186737 44.521484 23.996094 A 1.250125 1.250125 0 0 0 44.521484 23.998047 C 44.988672 24.80772 46.061571 25.094401 46.871094 24.626953 L 49.785156 22.945312 C 50.103053 22.761699 50.265567 22.440588 50.408203 22.123047 C 51.892741 25.036119 52.843573 28.259161 53.027344 31.705078 C 52.735834 31.478269 52.407294 31.28125 52.017578 31.28125 L 48.654297 31.28125 C 47.719321 31.281251 46.933015 32.065024 46.933594 33 C 46.933593 33.934589 47.719708 34.718748 48.654297 34.71875 L 52.017578 34.71875 C 52.407294 34.71875 52.735834 34.521731 53.027344 34.294922 C 52.843573 37.740839 51.892741 40.963881 50.408203 43.876953 C 50.265568 43.559414 50.103051 43.238301 49.785156 43.054688 L 46.871094 41.373047 C 46.609802 41.222278 46.313388 41.142513 46.011719 41.142578 A 1.250125 1.250125 0 0 0 46.009766 41.142578 C 45.859546 41.142652 45.711489 41.162222 45.566406 41.201172 C 45.126385 41.31892 44.749321 41.607524 44.521484 42.001953 C 44.054584 42.811312 44.343145 43.882432 45.152344 44.349609 L 48.064453 46.033203 C 48.378034 46.214202 48.732332 46.192115 49.074219 46.160156 C 47.239885 48.952002 44.89875 51.377769 42.097656 53.199219 C 42.142816 52.840018 42.153876 52.465519 41.962891 52.134766 L 40.474609 49.558594 C 40.325347 49.30009 40.043973 49.182529 39.791016 49.033203 A 1.250125 1.250125 0 0 0 39.621094 48.902344 C 39.546094 48.870154 39.511325 48.779187 39.431641 48.757812 C 39.286558 48.718852 39.13655 48.699299 38.986328 48.699219 C 38.68466 48.699154 38.388243 48.77892 38.126953 48.929688 C 37.317284 49.396876 37.030604 50.467823 37.498047 51.277344 L 38.984375 53.853516 C 39.155231 54.149611 39.459817 54.288585 39.75 54.433594 C 36.868974 55.884041 33.684139 56.770226 30.285156 56.953125 C 30.456964 56.686222 30.648436 56.422299 30.648438 56.087891 L 30.648438 53.767578 C 30.648436 52.832989 29.864278 52.046875 28.929688 52.046875 C 27.9951 52.046877 27.210939 52.83299 27.210938 53.767578 L 27.210938 56.087891 C 27.210939 56.432059 27.404854 56.706748 27.585938 56.978516 C 24.217529 56.780197 21.125796 55.759291 18.269531 54.3125 C 18.485202 54.171283 18.739698 54.088 18.875 53.853516 L 19.697266 52.429688 C 20.164724 51.620168 19.878031 50.547273 19.068359 50.080078 C 18.774567 49.910448 18.436174 49.831711 18.097656 49.853516 L 18.095703 49.853516 C 17.984037 49.860916 17.871789 49.879303 17.763672 49.908203 C 17.323814 50.026349 16.946226 50.316365 16.71875 50.710938 L 15.896484 52.134766 C 15.665222 52.535267 15.624303 52.999898 15.734375 53.423828 A 1.250125 1.250125 0 0 0 14.730469 55.410156 C 14.750779 55.424826 14.774572 55.434609 14.794922 55.449219 L 14.792969 55.451172 C 14.805469 55.459072 14.819521 55.464746 14.832031 55.472656 C 19.357065 58.711467 24.89883 60.632812 30.876953 60.632812 C 46.107942 60.632812 58.509766 48.230989 58.509766 33 C 58.509766 17.769011 46.107942 5.3671875 30.876953 5.3671875 z " />
    <path
       id="path20124"
       style="color:#000000;fill:#aa4400;fill-opacity:1;stroke-width:2;stroke-linecap:round;stroke-linejoin:round;stroke:url(#radialGradient20997);stroke-opacity:1;stroke-miterlimit:4;stroke-dasharray:none"
       d="M 28.931641 12.351562 C 27.467791 12.351562 26.244141 13.575213 26.244141 15.039062 L 26.248047 14.923828 L 25.095703 32.226562 C 24.850219 33.473513 25.202292 34.82123 26.15625 35.775391 A 1.750175 1.750175 0 0 0 26.236328 35.849609 L 27.517578 36.980469 L 27.710938 51.099609 A 1.0001 1.0001 0 0 0 27.712891 51.101562 C 27.722951 51.74436 28.269691 52.304688 28.931641 52.304688 C 29.593529 52.304688 30.143456 51.744691 30.152344 51.099609 L 30.3125 39.443359 L 35.427734 43.955078 L 35.347656 43.880859 C 36.565927 45.099148 38.594229 45.099148 39.8125 43.880859 C 41.030788 42.662589 41.030788 40.634286 39.8125 39.416016 L 39.886719 39.496094 L 32.710938 31.357422 L 31.615234 14.923828 L 31.619141 15.039062 C 31.619142 13.575214 30.395491 12.351562 28.931641 12.351562 z " />
    <g
       id="path2783-6"
       style="opacity:1;fill:#aa4400;fill-opacity:1;stroke-width:8.52815"
       transform="matrix(0.11725856,0,0,0.11725856,-1.0865184,2.981809)">
      <path
         style="color:#000000;fill:#aa4400;fill-opacity:1;stroke-width:136.451;stroke-linecap:round;stroke-linejoin:round;-inkscape-stroke:none"
         d="M 256,102.82847 V 256"
         id="path5794" />
      <path
         id="path18640"
         style="color:#000000;stroke-width:3.5;stroke-linecap:round;stroke-linejoin:round;-inkscape-stroke:none"
         d="M 28.931641 12.351562 C 27.467791 12.351562 26.244141 13.575213 26.244141 15.039062 L 26.248047 14.923828 L 25.089844 32.304688 C 24.940884 34.541235 26.82585 36.267578 28.931641 36.267578 C 31.037431 36.267578 32.922397 34.541235 32.773438 32.304688 L 31.615234 14.923828 L 31.619141 15.039062 C 31.619142 13.575213 30.395491 12.351562 28.931641 12.351562 z "
         transform="matrix(8.528162,0,0,8.528162,9.266005,-25.42935)" />
    </g>
    <g
       id="path2783-6-4"
       inkscape:transform-center-x="-4.3237421"
       inkscape:transform-center-y="4.3237434"
       style="fill:#aa4400;fill-opacity:1;stroke-width:0.72729445;stroke:none;stroke-opacity:1;stroke-miterlimit:4;stroke-dasharray:none"
       transform="matrix(0.11725856,0,0,0.11725856,-1.0865184,2.981809)">
      <path
         style="color:#000000;fill:#aa4400;fill-opacity:1;stroke-width:0.72729445;stroke-linecap:round;stroke-linejoin:round;stroke:none;stroke-opacity:1;stroke-miterlimit:4;stroke-dasharray:none"
         d="M 329.7488,329.7488 256,256"
         id="path4801" />
      <path
         id="path18593"
         style="color:#000000;stroke-width:0.0852815;stroke-linecap:round;stroke-linejoin:round;stroke:none;stroke-opacity:1;stroke-miterlimit:4;stroke-dasharray:none"
         d="M 28.871094 29.113281 C 27.887741 29.121982 26.916959 29.487718 26.175781 30.207031 A 1.750175 1.750175 0 0 0 26.15625 30.224609 C 24.638818 31.742364 24.638818 34.257636 26.15625 35.775391 A 1.750175 1.750175 0 0 0 26.236328 35.849609 L 35.427734 43.955078 L 35.347656 43.880859 C 36.565927 45.099148 38.594229 45.099148 39.8125 43.880859 C 41.030788 42.662589 41.030788 40.634286 39.8125 39.416016 L 39.886719 39.496094 L 31.78125 30.304688 A 1.750175 1.750175 0 0 0 31.638672 30.160156 C 30.850459 29.451888 29.854447 29.104575 28.871094 29.113281 z "
         transform="matrix(8.528162,0,0,8.528162,9.266005,-25.42935)" />
    </g>
    <path
       id="path21991"
       style="color:#000000;fill:#aa4400;fill-opacity:1;stroke-width:2;stroke-linecap:round;stroke-linejoin:round;stroke:url(#radialGradient22057);stroke-opacity:1;stroke-miterlimit:4;stroke-dasharray:none"
       d="M 28.931641 12.351562 C 27.467791 12.351562 26.244141 13.575213 26.244141 15.039062 L 26.248047 14.923828 L 25.095703 32.226562 C 24.850219 33.473513 25.202292 34.82123 26.15625 35.775391 A 1.750175 1.750175 0 0 0 26.236328 35.849609 L 27.517578 36.980469 L 27.710938 51.099609 A 1.0001 1.0001 0 0 0 27.712891 51.101562 C 27.722951 51.74436 28.269691 52.304688 28.931641 52.304688 C 29.593529 52.304688 30.143456 51.744691 30.152344 51.099609 L 30.3125 39.443359 L 35.427734 43.955078 L 35.347656 43.880859 C 36.565927 45.099148 38.594229 45.099148 39.8125 43.880859 C 41.030788 42.662589 41.030788 40.634286 39.8125 39.416016 L 39.886719 39.496094 L 32.710938 31.357422 L 31.615234 14.923828 L 31.619141 15.039062 C 31.619142 13.575214 30.395491 12.351562 28.931641 12.351562 z " />
    <path
       style="color:#000000;fill:#ff0000;stroke-width:7.99999;stroke-linecap:round;stroke-linejoin:round;-inkscape-stroke:none"
       d="M 28.931669,33.000003 V 50.96068"
       id="path5952" />
    <path
       id="path18687"
       style="color:#000000;fill:#ff0000;stroke-width:0.02;stroke-linecap:round;stroke-linejoin:round;stroke:none;stroke-opacity:1;stroke-miterlimit:4;stroke-dasharray:none"
       d="M 28.931641 31.175781 C 27.936351 31.175769 27.107404 32.00471 27.107422 33 A 1.0001 1.0001 0 0 0 27.107422 33.001953 C 27.108065 33.401378 27.243942 33.782418 27.478516 34.09375 L 27.710938 51.099609 A 1.0001 1.0001 0 0 0 27.712891 51.101562 C 27.722951 51.74436 28.269691 52.304688 28.931641 52.304688 C 29.593529 52.304688 30.143456 51.744691 30.152344 51.099609 L 30.384766 34.09375 C 30.61934 33.782418 30.755218 33.401377 30.755859 33.001953 A 1.0001 1.0001 0 0 0 30.755859 33 C 30.755877 32.004706 29.926935 31.175763 28.931641 31.175781 z " />
  </g>
  <metadata
     id="metadata15199">
    <rdf:RDF>
      <cc:Work
         rdf:about="">
        <dc:title>Dinkur</dc:title>
      </cc:Work>
    </rdf:RDF>
  </metadata>
</svg>
