<?xml version="1.0" encoding="UTF-8" standalone="no"?>
<!-- Created with Inkscape (http://www.inkscape.org/) -->

<svg
   width="512"
   height="512"
   viewBox="0 0 512 512"
   version="1.1"
   id="svg5"
   inkscape:version="1.1.2 (0a00cf5339, 2022-02-04, custom)"
   sodipodi:docname="dinkur-large-512.svg"
   inkscape:export-filename="C:\Users\kalle\Documents\Inkscape\dinkur-large-512.png"
   inkscape:export-xdpi="96"
   inkscape:export-ydpi="96"
   xmlns:inkscape="http://www.inkscape.org/namespaces/inkscape"
   xmlns:sodipodi="http://sodipodi.sourceforge.net/DTD/sodipodi-0.dtd"
   xmlns:xlink="http://www.w3.org/1999/xlink"
   xmlns="http://www.w3.org/2000/svg"
   xmlns:svg="http://www.w3.org/2000/svg"
   xmlns:rdf="http://www.w3.org/1999/02/22-rdf-syntax-ns#"
   xmlns:cc="http://creativecommons.org/ns#"
   xmlns:dc="http://purl.org/dc/elements/1.1/">
  <title
     id="title15161">Dinkur</title>
  <sodipodi:namedview
     id="namedview7"
     pagecolor="#595959"
     bordercolor="#eeeeee"
     borderopacity="1"
     inkscape:pageshadow="0"
     inkscape:pageopacity="0"
     inkscape:pagecheckerboard="false"
     inkscape:document-units="px"
     showgrid="false"
     showguides="true"
     inkscape:guide-bbox="true"
     inkscape:object-paths="false"
     inkscape:snap-intersection-paths="false"
     inkscape:snap-smooth-nodes="false"
     inkscape:snap-midpoints="false"
     inkscape:object-nodes="true"
     inkscape:zoom="1"
     inkscape:cx="270.5"
     inkscape:cy="263"
     inkscape:window-width="1680"
     inkscape:window-height="987"
     inkscape:window-x="-8"
     inkscape:window-y="-8"
     inkscape:window-maximized="1"
     inkscape:current-layer="layer1" />
  <defs
     id="defs2">
    <linearGradient
       inkscape:collect="always"
       id="linearGradient6618">
      <stop
         style="stop-color:#ffd000;stop-opacity:1"
         offset="0"
         id="stop6614" />
      <stop
         style="stop-color:#b30000;stop-opacity:1"
         offset="1"
         id="stop6616" />
    </linearGradient>
    <radialGradient
       inkscape:collect="always"
       xlink:href="#linearGradient6618"
       id="radialGradient7264"
       cx="279.60065"
       cy="256"
       fx="279.60065"
       fy="256"
       r="178.22461"
       gradientTransform="matrix(2.2540355,0,0,1.6103276,-377.64398,-152.24386)"
       gradientUnits="userSpaceOnUse" />
  </defs>
  <g
     inkscape:label="Layer 1"
     inkscape:groupmode="layer"
     id="layer1">
    <path
       id="path4684"
       style="color:#000000;opacity:1;fill:url(#radialGradient7264);fill-opacity:1;stroke-linecap:round;stroke-linejoin:round;-inkscape-stroke:none;paint-order:stroke fill markers"
       d="m 252.58594,35 c -49.05595,0 -94.44622,15.806142 -131.44922,42.53125 33.41471,-21.207373 72.99332,-33.544921 115.43555,-33.544922 115.69228,0 210.34498,91.311432 215.75195,205.683592 0.17338,3.42131 0.26172,6.86505 0.26172,10.33008 0,3.46503 -0.0883,6.90877 -0.26172,10.33008 -5.40697,114.37216 -100.05967,205.68359 -215.75195,205.68359 -42.44223,0 -82.02084,-12.33755 -115.43555,-33.54492 C 158.13972,469.19386 203.52999,485 252.58594,485 c 124.11589,0 225,-100.88411 225,-225 0,-124.11589 -100.88411,-225 -225,-225 z m -16.60156,24.103516 a 4.0000048,4.0000048 0 0 0 -4,4 v 19.777343 a 4.0000048,4.0000048 0 0 0 4,4 4.0000048,4.0000048 0 0 0 4,-4 V 63.103516 a 4.0000048,4.0000048 0 0 0 -4,-4 z m 98.44921,26.378906 a 4.0000048,4.0000048 0 0 0 -1.03515,0.136719 4.0000048,4.0000048 0 0 0 -2.42969,1.863281 l -12.67383,21.953128 a 4.0000048,4.0000048 0 0 0 1.46289,5.46484 4.0000048,4.0000048 0 0 0 5.46485,-1.46484 l 12.67578,-21.953128 a 4.0000048,4.0000048 0 0 0 -1.46485,-5.464844 4.0000048,4.0000048 0 0 0 -2,-0.535156 z m -196.63476,0.0078 a 4.0000048,4.0000048 0 0 0 -2.26172,0.527344 4.0000048,4.0000048 0 0 0 -1.46484,5.464844 l 7.01757,12.15235 a 4.0000048,4.0000048 0 0 0 5.46289,1.46484 4.0000048,4.0000048 0 0 0 1.46485,-5.464846 L 141,87.482422 a 4.0000048,4.0000048 0 0 0 -2.42773,-1.863281 4.0000048,4.0000048 0 0 0 -0.77344,-0.128907 z m 268.70508,72.060548 a 4.0000048,4.0000048 0 0 0 -2,0.53711 l -24.84766,14.3457 a 4.0000048,4.0000048 0 0 0 -1.46484,5.46289 4.0000048,4.0000048 0 0 0 5.46484,1.46485 l 24.84766,-14.34571 a 4.0000048,4.0000048 0 0 0 1.46289,-5.46484 4.0000048,4.0000048 0 0 0 -2.42774,-1.86328 4.0000048,4.0000048 0 0 0 -1.03515,-0.13672 z M 404.19141,256 a 4.0000048,4.0000048 0 0 0 -4,4 4.0000048,4.0000048 0 0 0 4,4 h 28.6914 a 4.0000048,4.0000048 0 0 0 4,-4 4.0000048,4.0000048 0 0 0 -4,-4 z m -22.53516,84.10352 a 4.0000048,4.0000048 0 0 0 -1.03516,0.13671 4.0000048,4.0000048 0 0 0 -2.42968,1.86329 4.0000048,4.0000048 0 0 0 1.46484,5.46289 l 24.84766,14.3457 a 4.0000048,4.0000048 0 0 0 5.46289,-1.46289 4.0000048,4.0000048 0 0 0 -1.46289,-5.46484 l -24.84766,-14.34571 a 4.0000048,4.0000048 0 0 0 -2,-0.53515 z M 321.75,404.54883 a 4.0000048,4.0000048 0 0 0 -2,0.53515 4.0000048,4.0000048 0 0 0 -1.46484,5.46485 l 12.68359,21.96875 a 4.0000048,4.0000048 0 0 0 5.46484,1.46484 4.0000048,4.0000048 0 0 0 1.46485,-5.46484 l -12.68555,-21.96875 a 4.0000048,4.0000048 0 0 0 -2.42773,-1.86328 4.0000048,4.0000048 0 0 0 -1.03516,-0.13672 z m -177.45898,9.82422 a 4.0000048,4.0000048 0 0 0 -0.77344,0.12695 4.0000048,4.0000048 0 0 0 -2.42774,1.86523 l -7.01757,12.15235 a 4.0000048,4.0000048 0 0 0 1.46484,5.46484 4.0000048,4.0000048 0 0 0 5.46484,-1.46484 l 7.01563,-12.15235 a 4.0000048,4.0000048 0 0 0 -1.46485,-5.46484 4.0000048,4.0000048 0 0 0 -2.26171,-0.52734 z m 91.69336,18.73047 a 4.0000048,4.0000048 0 0 0 -4,4 v 19.79296 a 4.0000048,4.0000048 0 0 0 4,4 4.0000048,4.0000048 0 0 0 4,-4 v -19.79296 a 4.0000048,4.0000048 0 0 0 -4,-4 z" />
    <g
       id="path2783-6"
       style="opacity:1;fill:#aa4400;fill-opacity:1"
       transform="translate(-20,4)">
      <path
         style="color:#000000;fill:#aa4400;fill-opacity:1;stroke-width:16;stroke-linecap:round;stroke-linejoin:round;-inkscape-stroke:none"
         d="M 256,102.82847 V 256"
         id="path5794" />
      <path
         style="color:#000000;fill:#aa4400;fill-opacity:1;stroke-linecap:round;stroke-linejoin:round;-inkscape-stroke:none"
         d="m 256,94.828125 c -4.41828,0 -8,3.581725 -8,8.000005 l -9.87278,148.23548 c -0.65597,9.84904 8.00192,17.87278 17.87278,17.87278 9.87086,0 18.52875,-8.02374 17.87278,-17.87278 L 264,102.82813 c 0,-4.41828 -3.58172,-8.000005 -8,-8.000005 z"
         id="path5796"
         sodipodi:nodetypes="scssscs" />
    </g>
    <g
       id="path2783-6-4"
       inkscape:transform-center-x="-25.152549"
       inkscape:transform-center-y="45.861579"
       style="fill:#aa4400;fill-opacity:1"
       transform="rotate(15,227.54018,178.91762)">
      <path
         style="color:#000000;fill:#aa4400;fill-opacity:1;stroke-width:24;stroke-linecap:round;stroke-linejoin:round;-inkscape-stroke:none"
         d="M 329.7488,329.7488 256,256"
         id="path4801" />
      <path
         style="color:#000000;fill:#aa4400;fill-opacity:1;stroke-linecap:round;stroke-linejoin:round;-inkscape-stroke:none"
         d="m 242.89062,242.89062 c -7.23901,7.24055 -7.23901,18.9782 0,26.21875 l 78.37305,69.125 c 4.68631,4.68638 12.28439,4.68638 16.9707,0 4.68638,-4.68631 4.68638,-12.28439 0,-16.9707 l -69.125,-78.37305 c -7.84315,-7.04765 -19.35388,-6.66236 -26.21875,0 z"
         id="path4798"
         sodipodi:nodetypes="ccccccc" />
    </g>
    <path
       style="color:#000000;fill:#ff0000;stroke-width:8;stroke-linecap:round;stroke-linejoin:round;-inkscape-stroke:none"
       d="M 236,260.00002 V 413.17155"
       id="path5952" />
    <path
       id="path5954"
       style="color:#000000;fill:#ff0000;stroke-linecap:round;stroke-linejoin:round;-inkscape-stroke:none"
       d="M 236,252.97656 A 7.0233078,7.0233078 0 0 0 228.97656,260 a 7.0233078,7.0233078 0 0 0 3.10352,5.81641 l 2.04492,148.41797 c 0.0143,1.03543 0.83947,1.875 1.875,1.875 1.03553,0 1.86073,-0.83956 1.875,-1.875 l 2.04492,-148.41797 A 7.0233078,7.0233078 0 0 0 243.02344,260 7.0233078,7.0233078 0 0 0 236,252.97656 Z" />
  </g>
  <metadata
     id="metadata15159">
    <rdf:RDF>
      <cc:Work
         rdf:about="">
        <dc:title>Dinkur</dc:title>
      </cc:Work>
    </rdf:RDF>
  </metadata>
</svg>
